<svg width="288" height="288" xmlns="http://www.w3.org/2000/svg"><svg xmlns="http://www.w3.org/2000/svg" width="288" height="288" fill="none" viewBox="0 0 28 28"><path fill="#faebd7" d="m12 23-1-1-1-8h1v-1l1 1 1 8-1 1zm4 0v-1l1-8v-1l1 1-1 8v1h-1z" class="color000 svgShape"/><path fill="#faebd7" fill-rule="evenodd" d="m12 1-1 1-1 2H5L3 6v3l2 2 3 15 1 1h11l1-1 2-15 2-2V6l-2-2h-5l-1-2-1-1h-4Zm4 3-1-1h-2l-1 1h4Zm5 7c1 0 0 0 0 0H7l2 13 1 1h9l1-1 1-13Zm1-2 1-1V7l-1-1H6L5 7v1l1 1h16Z" clip-rule="evenodd" class="color000 svgShape"/></svg></svg>